<svg width="221" height="46" viewBox="36 123 221 46" fill="none" xmlns="http://www.w3.org/2000/svg">
<path id="Vector" fill-rule="evenodd" clip-rule="evenodd" d="M60.7641 143.367C61.6634 142.436 62.683 141.629 63.7959 140.968C63.8104 140.956 63.8271 140.947 63.845 140.942C63.8629 140.937 63.8817 140.936 63.9002 140.938C63.9187 140.94 63.9365 140.946 63.9526 140.956C63.9686 140.965 63.9826 140.978 63.9937 140.993C64.0052 141.008 64.0137 141.024 64.0187 141.043C64.0236 141.061 64.025 141.079 64.0227 141.098C64.0204 141.117 64.0144 141.135 64.0051 141.151C63.9959 141.167 63.9835 141.182 63.9687 141.193C63.4454 141.511 62.9259 141.858 62.4302 142.247C61.942 142.631 61.4801 143.059 61.0332 143.505C61.1504 143.601 61.2369 143.729 61.2821 143.873C61.3272 144.018 61.3291 144.172 61.2873 144.318L61.3224 144.32C61.6141 143.893 66.1793 139.14 70.4717 140.752C71.1827 141.018 71.4481 143.598 69.3601 146.317C68.6065 147.296 68.1947 146.862 67.6126 147.133C70.4341 149.603 67.008 153.055 64.214 153.352C63.18 153.462 62.2637 151.544 61.1008 150.538L60.5676 151.072L60.0356 150.538C58.8714 151.544 57.9551 153.462 56.9224 153.352C54.1284 153.056 50.701 149.603 53.5238 147.133C52.9417 146.861 52.5299 147.296 51.7763 146.317C49.6883 143.598 49.9524 141.019 50.6634 140.752C54.9558 139.139 59.5211 143.892 59.8127 144.32L59.8478 144.318C59.8068 144.174 59.8078 144.023 59.8506 143.88C59.8934 143.738 59.9763 143.611 60.0894 143.514C59.64 143.066 59.1756 142.633 58.6824 142.246C58.1879 141.856 57.6684 141.511 57.1452 141.192C57.1156 141.168 57.0964 141.134 57.0917 141.097C57.087 141.059 57.0972 141.022 57.1202 140.992C57.1312 140.977 57.1452 140.964 57.1613 140.954C57.1774 140.945 57.1952 140.939 57.2137 140.937C57.2322 140.934 57.2509 140.936 57.2689 140.941C57.2868 140.946 57.3035 140.955 57.3179 140.966C58.4082 141.605 59.4047 142.405 60.3548 143.371C60.4884 143.333 60.6298 143.332 60.7641 143.367ZM248.716 156.497C248.049 156.698 247.369 156.869 246.677 156.961C245.906 157.048 245.131 157.089 244.356 157.083C243.926 157.081 243.497 157.058 243.07 157.012C241.474 156.828 239.843 156.31 238.579 155.296L238.351 155.098C237.841 154.626 237.426 154.061 237.128 153.433C236.993 153.123 236.892 152.799 236.828 152.467L236.786 152.181C236.723 151.511 236.803 150.836 237.022 150.2C237.058 150.103 237.097 150.008 237.137 149.913C237.447 149.239 237.914 148.649 238.499 148.193C238.988 147.816 239.514 147.53 240.076 147.282C241.574 146.647 243.206 146.332 244.812 146.125C245.815 146.011 246.821 145.923 247.828 145.862C248.998 145.787 250.165 145.726 251.335 145.679C251.335 145.411 251.283 145.145 251.183 144.896C251.094 144.705 250.966 144.534 250.809 144.394C250.401 144.036 249.88 143.864 249.362 143.743C249.097 143.687 248.831 143.643 248.562 143.613C247.423 143.493 246.277 143.47 245.135 143.543C243.298 143.683 241.478 143.995 239.699 144.475L239.514 144.525H238.658V140.933C240.639 140.561 242.642 140.316 244.655 140.198C245.769 140.146 246.885 140.144 248 140.193C248.839 140.229 249.677 140.296 250.506 140.422C251.787 140.628 253.051 141.004 254.159 141.696C254.308 141.795 254.452 141.898 254.594 142.007C254.959 142.303 255.256 142.614 255.531 142.996C255.656 143.185 255.763 143.374 255.866 143.576C256.01 143.897 256.115 144.211 256.199 144.552C256.275 144.915 256.314 145.265 256.331 145.634L256.333 156.698L251.336 156.638V155.403C250.908 155.622 250.487 155.84 250.048 156.027C249.612 156.205 249.167 156.362 248.716 156.497ZM235.274 144.245C234.922 144.235 234.57 144.231 234.218 144.234C232.659 144.253 231.122 144.603 229.709 145.26C229.393 145.412 229.083 145.574 228.78 145.753V156.665H223.763V140.525H228.78V142.371C229.907 141.771 231.068 141.242 232.302 140.904C233.097 140.689 233.913 140.563 234.735 140.53C235.033 140.521 235.332 140.525 235.627 140.531C236.145 140.543 236.656 140.608 237.169 140.664V144.351H236.358C236 144.287 235.638 144.252 235.274 144.245ZM211.453 156.939C210.827 156.889 210.208 156.817 209.588 156.72C209.017 156.622 208.451 156.498 207.891 156.351C207.371 156.205 206.858 156.031 206.355 155.831C205.965 155.663 205.582 155.479 205.206 155.279C204.853 155.076 204.511 154.856 204.18 154.618C203.932 154.429 203.692 154.229 203.461 154.019C203.136 153.704 202.836 153.363 202.566 153C202.396 152.756 202.24 152.504 202.097 152.244C201.961 151.98 201.839 151.709 201.73 151.433C201.631 151.148 201.544 150.859 201.471 150.566C201.372 150.107 201.308 149.642 201.278 149.173C201.263 148.771 201.268 148.367 201.293 147.965C201.33 147.576 201.383 147.203 201.467 146.819C201.536 146.524 201.619 146.242 201.716 145.954C201.875 145.529 202.061 145.137 202.283 144.744C202.442 144.486 202.606 144.245 202.787 144.003C203.072 143.644 203.384 143.306 203.72 142.993C204.021 142.728 204.335 142.48 204.662 142.248C204.931 142.066 205.205 141.894 205.49 141.729C206.006 141.445 206.527 141.207 207.08 140.994C207.575 140.815 208.068 140.667 208.579 140.541C209.026 140.439 209.469 140.356 209.923 140.287L210.485 140.218C210.971 140.169 211.459 140.136 211.947 140.119C213.871 140.076 215.839 140.215 217.66 140.878C218.312 141.119 218.933 141.435 219.513 141.818C219.931 142.101 220.303 142.416 220.66 142.775L220.921 143.063C221.362 143.599 221.714 144.167 221.968 144.812C222.234 145.527 222.358 146.259 222.398 147.018C222.432 147.818 222.408 148.616 222.408 149.416H206.372C206.428 150.028 206.607 150.601 206.913 151.135C207.089 151.421 207.284 151.669 207.521 151.907C207.788 152.16 208.064 152.368 208.372 152.561C208.719 152.766 209.069 152.932 209.441 153.077C209.977 153.274 210.51 153.409 211.067 153.511C213.126 153.85 215.261 153.718 217.287 153.245C217.901 153.098 218.508 152.914 219.106 152.711C219.774 152.483 220.424 152.205 221.05 151.88H221.971V155.627L219.852 156.171C219.268 156.32 218.681 156.457 218.09 156.569C217.146 156.74 216.192 156.894 215.237 156.962C213.976 157.037 212.712 157.029 211.453 156.939ZM203.901 140.525L194.515 156.664H190.366L181.052 140.525H186.56L192.577 151.496L198.536 140.525H203.901ZM174.963 156.414C174.158 156.669 173.342 156.879 172.503 156.981C171.785 157.058 171.061 157.079 170.338 157.082C169.489 157.082 168.642 156.987 167.814 156.799C166.64 156.519 165.503 156.053 164.557 155.294L164.332 155.097C163.82 154.625 163.404 154.06 163.106 153.431C163.029 153.253 162.962 153.07 162.906 152.885C162.763 152.375 162.714 151.843 162.762 151.316C162.819 150.625 163.039 149.957 163.405 149.368C163.655 148.983 163.958 148.634 164.306 148.333C164.766 147.953 165.275 147.634 165.819 147.387C166.963 146.865 168.189 146.558 169.42 146.332C171.164 146.024 172.929 145.912 174.692 145.807C175.565 145.756 176.439 145.713 177.313 145.677C177.308 145.276 177.223 144.897 176.971 144.579C176.914 144.513 176.853 144.45 176.79 144.39C176.381 144.033 175.861 143.862 175.34 143.74C175.076 143.684 174.81 143.641 174.543 143.61C173.403 143.491 172.256 143.467 171.113 143.54C169.276 143.672 167.458 144.002 165.677 144.473L165.495 144.523H164.638V140.93C165.11 140.845 165.58 140.761 166.052 140.69C166.73 140.59 167.41 140.498 168.091 140.416C170.545 140.111 173.024 140.07 175.486 140.293C176.243 140.371 176.982 140.483 177.716 140.676C178.511 140.89 179.268 141.178 179.984 141.595C180.29 141.784 180.569 141.988 180.84 142.227C180.966 142.345 181.082 142.464 181.2 142.593C181.459 142.9 181.664 143.21 181.846 143.57C181.941 143.78 182.02 143.987 182.09 144.209C182.187 144.557 182.249 144.896 182.285 145.259C182.3 145.444 182.307 145.631 182.31 145.816V156.659H177.315V155.398L177.225 155.445C176.699 155.715 176.176 155.973 175.624 156.184C175.406 156.268 175.186 156.344 174.963 156.414ZM155.876 144.006C155.233 143.685 154.47 143.64 153.763 143.628C153.573 143.625 153.383 143.629 153.193 143.642C151.639 143.765 150.157 144.423 148.822 145.19L148.763 145.224C148.795 145.52 148.812 145.81 148.815 146.108V156.663H143.799V147.289C143.798 146.652 143.747 146.015 143.647 145.385C143.58 145.046 143.481 144.738 143.269 144.461C143.087 144.233 142.851 144.054 142.582 143.941C141.917 143.663 141.164 143.629 140.45 143.625C139.696 143.638 138.949 143.77 138.236 144.016C137.339 144.327 136.475 144.726 135.656 145.205V156.663H130.639V140.525H135.656V141.759C136.731 141.145 137.879 140.634 139.088 140.357C140.488 140.05 141.946 140.034 143.361 140.247C143.984 140.347 144.587 140.495 145.183 140.709L145.502 140.835C146.355 141.216 147.088 141.731 147.654 142.48C148.989 141.572 150.439 140.8 152.013 140.408C152.737 140.237 153.477 140.138 154.221 140.114C155.581 140.076 156.971 140.21 158.256 140.67C158.661 140.825 159.035 141.007 159.407 141.228C159.679 141.4 159.926 141.582 160.17 141.791C160.488 142.078 160.754 142.378 161.003 142.724C161.265 143.11 161.473 143.5 161.629 143.937C161.871 144.643 161.962 145.372 161.971 146.118V156.663H156.954V147.289C156.954 146.652 156.903 146.015 156.802 145.385L156.426 144.461C156.277 144.272 156.09 144.117 155.876 144.006ZM135.683 138.865H130.617V135.558L135.683 135.556V138.865ZM127.89 144.241C127.181 144.225 126.48 144.222 125.776 144.302C124.572 144.443 123.399 144.78 122.304 145.3C122.018 145.439 121.737 145.589 121.462 145.751V156.663H116.445V140.525H121.462V142.371C122.589 141.773 123.75 141.242 124.984 140.904C125.779 140.689 126.594 140.563 127.417 140.53C127.715 140.521 128.013 140.525 128.31 140.531C128.826 140.543 129.338 140.608 129.85 140.664V144.351H129.038C128.903 144.326 128.767 144.304 128.631 144.287C128.385 144.262 128.137 144.247 127.89 144.241ZM113.867 153.313C113.675 153.547 113.473 153.772 113.261 153.988C112.87 154.367 112.449 154.715 112.003 155.029C111.68 155.248 111.346 155.452 111.002 155.637C110.65 155.82 110.297 155.982 109.929 156.132C109.395 156.336 108.861 156.499 108.307 156.63C107.809 156.738 107.315 156.817 106.809 156.875C105.467 157.005 104.115 156.982 102.779 156.807C101.834 156.673 100.903 156.451 99.9988 156.144V168.07L94.9829 164.753V140.525H99.9988V141.72C100.844 141.3 101.72 140.948 102.62 140.666C103.507 140.398 104.421 140.227 105.345 140.154C106.476 140.064 107.614 140.105 108.736 140.275C109.181 140.352 109.621 140.454 110.054 140.58C110.469 140.71 110.862 140.86 111.256 141.042C111.508 141.164 111.749 141.293 111.988 141.436C112.46 141.734 112.877 142.056 113.281 142.437C113.571 142.724 113.829 143.017 114.075 143.339C114.192 143.499 114.302 143.663 114.408 143.829C114.722 144.354 114.961 144.88 115.152 145.462C115.252 145.795 115.333 146.123 115.398 146.462C115.483 146.966 115.528 147.461 115.545 147.97C115.55 148.453 115.528 148.92 115.476 149.4C115.425 149.782 115.352 150.161 115.258 150.535C115.177 150.825 115.084 151.111 114.979 151.393C114.811 151.804 114.612 152.203 114.383 152.584C114.221 152.834 114.049 153.077 113.867 153.313ZM60.5688 129.332L61.5352 129.357L62.4903 129.43L63.4304 129.55L64.3555 129.717L65.2655 129.927L66.158 130.182L67.033 130.479L67.888 130.817L68.7229 131.195L69.5341 131.611L70.3227 132.065L71.0863 132.557L71.8249 133.083L72.5359 133.642L73.2206 134.234L73.8753 134.858L74.4999 135.512L75.0933 136.196L75.6516 136.908L76.1786 137.645L76.6693 138.41L77.1237 139.199L77.5405 140.009L77.9186 140.844L78.2565 141.699L78.552 142.571L78.8073 143.464L79.0176 144.374L79.1841 145.299L79.3043 146.238L79.3769 147.193L79.4019 148.159C79.4007 148.329 79.3982 148.498 79.3932 148.669L79.3669 149.187C79.3544 149.362 79.3406 149.536 79.3243 149.713C79.3055 149.889 79.2868 150.064 79.2655 150.241C79.219 150.594 79.1656 150.946 79.1053 151.296C79.0627 151.528 79.0189 151.758 78.9713 151.988C78.8872 152.382 78.7933 152.773 78.6897 153.161L78.5357 153.697L83.2036 156.759L83.4076 156.164L83.5716 155.659L83.7268 155.143L83.8733 154.622L84.011 154.093L84.1412 153.558L84.2601 153.019L84.3703 152.478L84.4692 151.933L84.5555 151.388L84.6294 150.843L84.6632 150.57L84.7183 150.027L84.742 149.757L84.7621 149.487L84.7796 149.218L84.7921 148.95L84.8009 148.684L84.8071 148.418V148.154L84.7771 146.911L84.6832 145.684L84.528 144.474L84.3152 143.282L84.0423 142.112L83.7156 140.964L83.3338 139.839L82.8982 138.738L82.4112 137.666L81.8755 136.623L81.2909 135.606L80.66 134.622L79.9815 133.672L79.2617 132.757L78.4969 131.882L77.6932 131.039L76.852 130.235L75.972 129.474L75.0557 128.754L74.1056 128.076L73.1217 127.445L72.1065 126.861L71.0613 126.324L69.9885 125.839L68.8894 125.403L67.7641 125.021L66.6162 124.695L65.4445 124.424L64.2528 124.209L63.0423 124.055L61.8143 123.961L60.5701 123.93L59.327 123.961L58.099 124.055L56.8886 124.209L55.6969 124.424L54.5252 124.695L53.3761 125.021L52.252 125.403L51.1516 125.839L50.0789 126.324L49.0349 126.861L48.0209 127.445L47.037 128.076L46.0869 128.754L45.1706 129.474L44.2894 130.235L43.4482 131.039L42.6408 131.882L41.8772 132.762L41.1574 133.677L40.4802 134.627L39.848 135.611L39.2634 136.628L38.7264 137.671L38.2407 138.743L37.8051 139.844L37.4233 140.969L37.0966 142.117L36.8262 143.286L36.6134 144.478L36.4582 145.688L36.3643 146.915L36.333 148.158L36.3343 148.422L36.3405 148.687L36.3493 148.954L36.3618 149.222L36.3781 149.491L36.3981 149.76L36.4469 150.302L36.5108 150.847L36.5859 151.391L36.6722 151.937L36.7711 152.482L36.88 153.022L36.999 153.562L37.1291 154.096L37.2681 154.626L37.4146 155.147L37.5698 155.662L37.7325 156.168L37.9365 156.763L42.6045 153.701C42.5521 153.523 42.5008 153.344 42.4505 153.165C42.3928 152.945 42.3373 152.725 42.284 152.504C42.2444 152.334 42.206 152.164 42.1688 151.993C42.1211 151.763 42.0764 151.533 42.0349 151.301C42.0061 151.126 41.9748 150.951 41.9485 150.777C41.9222 150.599 41.8984 150.422 41.8747 150.246C41.8538 150.07 41.8342 149.894 41.8158 149.718C41.7849 149.37 41.7615 149.022 41.7457 148.674C41.7409 148.504 41.738 148.334 41.737 148.164L41.762 147.198L41.8346 146.243L41.9548 145.304L42.12 144.379L42.3303 143.469L42.5857 142.576L42.8811 141.704L43.2203 140.849L43.5984 140.014L44.0152 139.204L44.4696 138.415L44.9603 137.651L45.4861 136.913L46.0456 136.201L46.639 135.512L47.2623 134.858L47.917 134.234L48.6005 133.642L49.3128 133.083L50.0513 132.557L50.8149 132.065L51.6035 131.611L52.4147 131.195L53.2484 130.817L54.1034 130.479L54.9771 130.182L55.8696 129.927L56.7797 129.717L57.706 129.55L58.6461 129.43L59.6012 129.357L60.5688 129.332ZM110.242 146.835L110.183 146.596C109.966 145.818 109.609 145.12 108.995 144.58C108.749 144.378 108.476 144.209 108.184 144.08C107.158 143.644 106.005 143.581 104.902 143.648C104.167 143.697 103.44 143.824 102.731 144.025C101.79 144.301 100.873 144.664 99.9976 145.115V152.882C100.796 153.123 101.596 153.328 102.422 153.443C103.253 153.551 104.092 153.586 104.93 153.568C105.569 153.549 106.204 153.465 106.826 153.317C107.266 153.201 107.692 153.038 108.097 152.83C108.467 152.627 108.794 152.395 109.103 152.106L109.27 151.936C109.691 151.46 109.963 150.953 110.157 150.349C110.208 150.175 110.251 150.003 110.287 149.825C110.465 148.835 110.449 147.82 110.242 146.835ZM175.528 148.934C174.104 149.024 172.677 149.108 171.269 149.352C170.372 149.514 169.487 149.763 168.702 150.238L168.543 150.34C168.23 150.57 168.037 150.803 167.932 151.179C167.837 151.615 167.883 152.049 168.091 152.444C168.189 152.602 168.291 152.719 168.429 152.845C169.111 153.39 170.027 153.542 170.874 153.611C172.203 153.701 173.534 153.593 174.803 153.181C175.671 152.889 176.512 152.521 177.317 152.084V148.821L175.528 148.934ZM216.929 144.943C216.852 144.83 216.767 144.722 216.675 144.62C216.083 143.985 215.277 143.663 214.441 143.486C213.837 143.372 213.224 143.311 212.609 143.306C211.742 143.294 210.866 143.336 210.021 143.538L209.891 143.57C209.3 143.728 208.734 143.964 208.206 144.271C207.662 144.598 207.189 145.008 206.839 145.539C206.68 145.802 206.56 146.068 206.472 146.362H217.448C217.419 146.173 217.379 145.986 217.327 145.802C217.238 145.498 217.103 145.209 216.929 144.943ZM249.55 148.934C248.124 149.024 246.697 149.108 245.288 149.352C244.393 149.514 243.506 149.763 242.721 150.238L242.562 150.34C242.252 150.57 242.059 150.803 241.951 151.179C241.859 151.615 241.902 152.049 242.113 152.444C242.21 152.602 242.313 152.719 242.451 152.845C243.077 153.345 243.89 153.508 244.673 153.592C246.061 153.72 247.492 153.616 248.821 153.183C249.689 152.891 250.53 152.524 251.335 152.085V148.823C250.738 148.859 250.144 148.895 249.55 148.934ZM53.6903 146.794C50.9301 144.809 50.7761 142.486 51.1053 141.784C51.5935 140.742 52.1268 141.173 52.1618 141.627C51.5547 142.093 50.9301 144.809 53.6903 146.794ZM66.9442 151.304C68.1321 150.449 68.1997 149.449 68.0583 149.146C67.8479 148.698 67.6176 148.883 67.6026 149.079C67.8642 149.281 68.1334 150.45 66.9442 151.304ZM54.1922 151.304C53.0055 150.449 52.9367 149.449 53.0781 149.146C53.2897 148.698 53.5188 148.883 53.5338 149.079C53.2734 149.281 53.0055 150.45 54.1922 151.304ZM60.4374 149.455C59.1868 147.172 59.5386 145.949 59.6801 145.39C59.8904 144.558 60.1219 144.943 60.1157 145.306C59.9191 145.642 59.635 147.812 60.4374 149.455ZM67.4474 146.794C70.2076 144.809 70.364 142.486 70.0336 141.784C69.5441 140.742 69.0121 141.173 68.9771 141.627C69.5829 142.093 70.2063 144.809 67.4474 146.794Z" fill="#536C7B"/>
</svg>
